# xmcd CD database file
#
# Track frame offsets:
#	150
#	14665
#	26834
#	36742
#	49199
#	61021
#	77256
#	97958
#	113224
#	127704
#	140508
#	154504
#	175845
#	187489
#
# Disc length: 2616 seconds
#
# Revision: 0
# Processed by: cddbd v1.5.2PL0 Copyright (c) Steve Scherf et al.
# Submitted via: CDex 1.70beta2
#
DISCID=b80a360e
DTITLE=Nils Lindberg - A Christmas Cantata
DYEAR=2004
DGENRE=Jazz
TTITLE0=Landes-Jugendjazzorchester Bayern - Vokalensemble Animato - Introduction
TTITLE1=Landes-Jugendjazzorchester Bayern - Vokalensemble Animato - Isaiah 9 2, 6, 7
TTITLE2=Landes-Jugendjazzorchester Bayern - Vokalensemble Animato - Matthew 1 18-21 and Luke 1 32
TTITLE3=Landes-Jugendjazzorchester Bayern - Vokalensemble Animato - Ding dong! Merrily on high
TTITLE4=Landes-Jugendjazzorchester Bayern - Vokalensemble Animato - Like 2 1 3-7
TTITLE5=Landes-Jugendjazzorchester Bayern - Vokalensemble Animato - Sussex Carol
TTITLE6=Landes-Jugendjazzorchester Bayern - Vokalensemble Animato - Luke 2 8-16,20
TTITLE7=Landes-Jugendjazzorchester Bayern - Vokalensemble Animato - Sing, O sing
TTITLE8=Landes-Jugendjazzorchester Bayern - Vokalensemble Animato - Mary's thoughts
TTITLE9=Landes-Jugendjazzorchester Bayern - Vokalensemble Animato - God rest you, merry gentlemen
TTITLE10=Landes-Jugendjazzorchester Bayern - Vokalensemble Animato - Matthew 2 1, 2, 5-11
TTITLE11=Landes-Jugendjazzorchester Bayern - Vokalensemble Animato - Deck the hall
TTITLE12=Landes-Jugendjazzorchester Bayern - Vokalensemble Animato - John 1 1, 4 and Matthew 1 23
TTITLE13=Landes-Jugendjazzorchester Bayern - Vokalensemble Animato - Finale
EXTD=YEAR: 2004
EXTT0=
EXTT1=
EXTT2=
EXTT3=
EXTT4=
EXTT5=
EXTT6=
EXTT7=
EXTT8=
EXTT9=
EXTT10=
EXTT11=
EXTT12=
EXTT13=
PLAYORDER=
